<svg xmlns="http://www.w3.org/2000/svg" width="1060" height="1090" viewBox="0 0 1060 1090"><title>P02 · Reserva, pago y contratación</title><desc>Diseño BPMN de alto nivel de EspaciGo. Dos subprocesos expandidos con flujos internos y decisiones exclusivas. Propuesta ES2, sin implementación acreditada.</desc><defs><marker id="arrow" markerWidth="10" markerHeight="10" refX="9" refY="3" orient="auto" markerUnits="strokeWidth"><path d="M0,0 L9,3 L0,6 Z" fill="#233447"/></marker></defs><rect width="1060" height="1090" fill="white"/><g font-family="Arial" font-size="24" fill="#152536"><text x="530" y="38" font-size="29" text-anchor="middle"><tspan x="530" dy="0">P02 · Reserva, pago y contratación</tspan></text><text x="530" y="71" font-size="20" text-anchor="middle"><tspan x="530" dy="0">Proceso interno · responsables y excepciones en el informe</tspan></text><circle cx="415" cy="116" r="20" fill="white" stroke="#233447" stroke-width="2"/><polyline points="415,136 415,170" fill="none" stroke="#233447" stroke-width="2" marker-end="url(#arrow)"/><rect x="55" y="170" width="720" height="205" rx="14" fill="#eff5fa" stroke="#233447" stroke-width="2"/><text x="75" y="203" font-size="24" text-anchor="start"><tspan x="75" dy="0">SP02.1 · Validar solicitud y gestionar pago</tspan></text><circle cx="95" cy="288" r="20" fill="white" stroke="#233447" stroke-width="2"/><rect x="150" y="243" width="230" height="90" rx="12" fill="white" stroke="#233447" stroke-width="2"/><text x="265" y="273" font-size="22" text-anchor="middle"><tspan x="265" dy="0">Validar identidad,</tspan><tspan x="265" dy="29">fechas y ocupación</tspan></text><rect x="440" y="243" width="230" height="90" rx="12" fill="white" stroke="#233447" stroke-width="2"/><text x="555" y="273" font-size="22" text-anchor="middle"><tspan x="555" dy="0">Solicitar pago</tspan><tspan x="555" dy="29">y garantía</tspan></text><circle cx="732" cy="288" r="20" fill="white" stroke="#233447" stroke-width="5"/><polyline points="115,288 150,288" fill="none" stroke="#233447" stroke-width="2" marker-end="url(#arrow)"/><polyline points="380,288 440,288" fill="none" stroke="#233447" stroke-width="2" marker-end="url(#arrow)"/><polyline points="670,288 712,288" fill="none" stroke="#233447" stroke-width="2" marker-end="url(#arrow)"/><polyline points="415,375 415,411" fill="none" stroke="#233447" stroke-width="2" marker-end="url(#arrow)"/><polygon points="415,411 444,440 415,469 386,440" fill="white" stroke="#233447" stroke-width="2"/><path d="M405,430 L425,450 M425,430 L405,450" stroke="#233447" stroke-width="2"/><text x="370" y="428" font-size="21" text-anchor="end"><tspan x="370" dy="0">¿Pago y garantía</tspan><tspan x="370" dy="29">confirmados?</tspan></text><polyline points="444,440 815,440" fill="none" stroke="#233447" stroke-width="2" marker-end="url(#arrow)"/><text x="590" y="425" font-size="21" text-anchor="middle"><tspan x="590" dy="0">No</tspan></text><rect x="815" y="396" width="220" height="95" rx="12" fill="white" stroke="#233447" stroke-width="2"/><text x="925" y="426" font-size="22" text-anchor="middle"><tspan x="925" dy="0">Cancelar o conciliar</tspan><tspan x="925" dy="29">y liberar ocupación</tspan></text><polyline points="925,491 925,534" fill="none" stroke="#233447" stroke-width="2" marker-end="url(#arrow)"/><circle cx="925" cy="554" r="20" fill="white" stroke="#233447" stroke-width="5"/><text x="925" y="596" font-size="18" text-anchor="middle"><tspan x="925" dy="0">No habilitada</tspan></text><polyline points="415,469 415,550" fill="none" stroke="#233447" stroke-width="2" marker-end="url(#arrow)"/><text x="444" y="512" font-size="21" text-anchor="middle"><tspan x="444" dy="0">Sí</tspan></text><rect x="55" y="550" width="720" height="205" rx="14" fill="#eff5fa" stroke="#233447" stroke-width="2"/><text x="75" y="583" font-size="24" text-anchor="start"><tspan x="75" dy="0">SP02.2 · Aprobar y formalizar</tspan></text><circle cx="95" cy="668" r="20" fill="white" stroke="#233447" stroke-width="2"/><rect x="150" y="623" width="230" height="90" rx="12" fill="white" stroke="#233447" stroke-width="2"/><text x="265" y="653" font-size="22" text-anchor="middle"><tspan x="265" dy="0">Obtener decisión</tspan><tspan x="265" dy="29">del arrendador</tspan></text><rect x="440" y="623" width="230" height="90" rx="12" fill="white" stroke="#233447" stroke-width="2"/><text x="555" y="653" font-size="22" text-anchor="middle"><tspan x="555" dy="0">Generar contrato</tspan><tspan x="555" dy="29">y obtener firmas</tspan></text><circle cx="732" cy="668" r="20" fill="white" stroke="#233447" stroke-width="5"/><polyline points="115,668 150,668" fill="none" stroke="#233447" stroke-width="2" marker-end="url(#arrow)"/><polyline points="380,668 440,668" fill="none" stroke="#233447" stroke-width="2" marker-end="url(#arrow)"/><polyline points="670,668 712,668" fill="none" stroke="#233447" stroke-width="2" marker-end="url(#arrow)"/><polyline points="415,755 415,791" fill="none" stroke="#233447" stroke-width="2" marker-end="url(#arrow)"/><polygon points="415,791 444,820 415,849 386,820" fill="white" stroke="#233447" stroke-width="2"/><path d="M405,810 L425,830 M425,810 L405,830" stroke="#233447" stroke-width="2"/><text x="370" y="808" font-size="21" text-anchor="end"><tspan x="370" dy="0">¿Aprobación y</tspan><tspan x="370" dy="29">firmas vigentes?</tspan></text><polyline points="444,820 815,820" fill="none" stroke="#233447" stroke-width="2" marker-end="url(#arrow)"/><text x="590" y="805" font-size="21" text-anchor="middle"><tspan x="590" dy="0">No</tspan></text><rect x="815" y="776" width="220" height="95" rx="12" fill="white" stroke="#233447" stroke-width="2"/><text x="925" y="806" font-size="22" text-anchor="middle"><tspan x="925" dy="0">Cancelar, gestionar</tspan><tspan x="925" dy="29">reembolso y liberar</tspan></text><polyline points="925,871 925,914" fill="none" stroke="#233447" stroke-width="2" marker-end="url(#arrow)"/><circle cx="925" cy="934" r="20" fill="white" stroke="#233447" stroke-width="5"/><text x="925" y="976" font-size="18" text-anchor="middle"><tspan x="925" dy="0">No habilitada</tspan></text><polyline points="415,849 415,954" fill="none" stroke="#233447" stroke-width="2" marker-end="url(#arrow)"/><text x="445" y="900" font-size="21" text-anchor="middle"><tspan x="445" dy="0">Sí</tspan></text><circle cx="415" cy="974" r="20" fill="white" stroke="#233447" stroke-width="5"/><text x="415" y="1017" font-size="24" text-anchor="middle"><tspan x="415" dy="0">Reserva habilitada para ingreso</tspan></text><text x="530" y="1060" font-size="18" text-anchor="middle"><tspan x="530" dy="0">Círculo: evento · rombo: decisión exclusiva · rectángulo grande: subproceso</tspan></text></g></svg>
